<svg width="20" height="20" viewBox="0 0 20 20" fill="none" xmlns="http://www.w3.org/2000/svg">
<g clip-path="url(#clip0_995_1794)">
<g clip-path="url(#clip1_995_1794)">
<path d="M5.83333 5H14.1667" stroke="#A66BB5" stroke-width="1.5" stroke-linecap="round" stroke-linejoin="round"/>
<path d="M5.83333 7.5H14.1667" stroke="#A66BB5" stroke-width="1.5" stroke-linecap="round" stroke-linejoin="round"/>
<path d="M7.5 14.1667H12.5" stroke="#A66BB5" stroke-width="1.5" stroke-linecap="round" stroke-linejoin="round"/>
<path d="M2.5 10.0001H2.16667C1.89053 10.0001 1.66667 10.2239 1.66667 10.5001V17.8334C1.66667 18.1096 1.89053 18.3334 2.16667 18.3334H17.8333C18.1095 18.3334 18.3333 18.1096 18.3333 17.8334V10.5001C18.3333 10.2239 18.1095 10.0001 17.8333 10.0001H17.5M2.5 10.0001V2.16675C2.5 1.89061 2.72386 1.66675 3 1.66675H17C17.2762 1.66675 17.5 1.89061 17.5 2.16675V10.0001M2.5 10.0001H17.5" stroke="#A66BB5" stroke-width="1.5"/>
</g>
</g>
<defs>
<clipPath id="clip0_995_1794">
<rect width="20" height="20" fill="white"/>
</clipPath>
<clipPath id="clip1_995_1794">
<rect width="20" height="20" fill="white"/>
</clipPath>
</defs>
</svg>
