<svg width="24" height="24" viewBox="0 0 24 24" fill="none" xmlns="http://www.w3.org/2000/svg">
<path d="M3 5.5C2.72386 5.5 2.5 5.72386 2.5 6C2.5 6.27614 2.72386 6.5 3 6.5H21C21.2761 6.5 21.5 6.27614 21.5 6C21.5 5.72386 21.2761 5.5 21 5.5H3Z" stroke="#272727" stroke-linecap="round" stroke-linejoin="round"/>
<path d="M7 11.5C6.72386 11.5 6.5 11.7239 6.5 12C6.5 12.2761 6.72386 12.5 7 12.5H17C17.2761 12.5 17.5 12.2761 17.5 12C17.5 11.7239 17.2761 11.5 17 11.5H7Z" stroke="#272727" stroke-linecap="round" stroke-linejoin="round"/>
<path d="M11 17.5C10.7239 17.5 10.5 17.7239 10.5 18C10.5 18.2761 10.7239 18.5 11 18.5H13C13.2761 18.5 13.5 18.2761 13.5 18C13.5 17.7239 13.2761 17.5 13 17.5H11Z" stroke="#272727" stroke-linecap="round" stroke-linejoin="round"/>
</svg>
