<svg width="20" height="20" viewBox="0 0 20 20" fill="none" xmlns="http://www.w3.org/2000/svg">
<path d="M0.833252 16.6667V15.8333C0.833252 12.6117 3.44493 10 6.66659 10C9.88825 10 12.4999 12.6117 12.4999 15.8333V16.6667" stroke="#272727" stroke-width="1.5" stroke-linecap="round"/>
<path d="M10.8333 11.6667C10.8333 9.3655 12.6988 7.5 14.9999 7.5C17.3011 7.5 19.1666 9.3655 19.1666 11.6667V12.0833" stroke="#272727" stroke-width="1.5" stroke-linecap="round"/>
<path d="M6.66659 9.99992C8.5075 9.99992 9.99992 8.5075 9.99992 6.66659C9.99992 4.82564 8.5075 3.33325 6.66659 3.33325C4.82564 3.33325 3.33325 4.82564 3.33325 6.66659C3.33325 8.5075 4.82564 9.99992 6.66659 9.99992Z" stroke="#272727" stroke-width="1.5" stroke-linecap="round" stroke-linejoin="round"/>
<path d="M15 7.5C16.3807 7.5 17.5 6.38071 17.5 5C17.5 3.61929 16.3807 2.5 15 2.5C13.6192 2.5 12.5 3.61929 12.5 5C12.5 6.38071 13.6192 7.5 15 7.5Z" stroke="#272727" stroke-width="1.5" stroke-linecap="round" stroke-linejoin="round"/>
</svg>
