<svg width="22" height="20" viewBox="0 0 22 20" fill="none" xmlns="http://www.w3.org/2000/svg">
<path d="M7 5H3C1.89543 5 1 5.89543 1 7V17C1 18.1046 1.89543 19 3 19H19C20.1046 19 21 18.1046 21 17V7C21 5.89543 20.1046 5 19 5H15M7 5V1.6C7 1.26863 7.26863 1 7.6 1H14.4C14.7314 1 15 1.26863 15 1.6V5M7 5H15H7Z" fill="#A66BB5"/>
<path d="M7 5H3C1.89543 5 1 5.89543 1 7V17C1 18.1046 1.89543 19 3 19H19C20.1046 19 21 18.1046 21 17V7C21 5.89543 20.1046 5 19 5H15M7 5V1.6C7 1.26863 7.26863 1 7.6 1H14.4C14.7314 1 15 1.26863 15 1.6V5M7 5H15" stroke="white"/>
</svg>
