<svg width="20" height="20" viewBox="0 0 20 20" fill="none" xmlns="http://www.w3.org/2000/svg">
<path d="M0.833328 16.6667V15.8333C0.833328 12.6117 3.445 10 6.66666 10C9.88833 10 12.5 12.6117 12.5 15.8333V16.6667" stroke="#A66BB5" stroke-width="1.5" stroke-linecap="round"/>
<path d="M10.8333 11.6667C10.8333 9.3655 12.6988 7.5 15 7.5C17.3012 7.5 19.1667 9.3655 19.1667 11.6667V12.0833" stroke="#A66BB5" stroke-width="1.5" stroke-linecap="round"/>
<path d="M6.66666 9.99992C8.50758 9.99992 9.99999 8.5075 9.99999 6.66658C9.99999 4.82563 8.50758 3.33325 6.66666 3.33325C4.82571 3.33325 3.33333 4.82563 3.33333 6.66658C3.33333 8.5075 4.82571 9.99992 6.66666 9.99992Z" stroke="#A66BB5" stroke-width="1.5" stroke-linecap="round" stroke-linejoin="round"/>
<path d="M15 7.5C16.3807 7.5 17.5 6.38071 17.5 5C17.5 3.61929 16.3807 2.5 15 2.5C13.6192 2.5 12.5 3.61929 12.5 5C12.5 6.38071 13.6192 7.5 15 7.5Z" stroke="#A66BB5" stroke-width="1.5" stroke-linecap="round" stroke-linejoin="round"/>
</svg>
