<svg width="18" height="18" viewBox="0 0 18 18" fill="none" xmlns="http://www.w3.org/2000/svg">
<path d="M9 9C10.6568 9 12 7.65682 12 6C12 4.34314 10.6568 3 9 3C7.34314 3 6 4.34314 6 6C6 7.65682 7.34314 9 9 9Z" stroke="#A66BB5" stroke-width="1.5" stroke-linecap="round" stroke-linejoin="round"/>
<path d="M3.75 15V14.25C3.75 11.3505 6.10051 9 9 9C9.8052 9 10.568 9.18128 11.25 9.5052" stroke="#A66BB5" stroke-width="1.5" stroke-linecap="round" stroke-linejoin="round"/>
<path d="M12.4762 12.3113L13.2555 10.6591C13.3555 10.447 13.6445 10.447 13.7445 10.6591L14.5238 12.3113L16.2664 12.5779C16.49 12.6121 16.5791 12.8998 16.4173 13.0648L15.1565 14.35L15.454 16.1657C15.4923 16.3989 15.2584 16.5766 15.0583 16.4665L13.5 15.6088L11.9416 16.4665C11.7415 16.5766 11.5077 16.3989 11.5459 16.1657L11.8435 14.35L10.5827 13.0648C10.4209 12.8998 10.51 12.6121 10.7335 12.5779L12.4762 12.3113Z" stroke="#A66BB5" stroke-width="1.5" stroke-linecap="round" stroke-linejoin="round"/>
</svg>
