<svg width="15" height="15" viewBox="0 0 15 15" fill="none" xmlns="http://www.w3.org/2000/svg">
<g clip-path="url(#clip0_267_52)">
<path d="M2.5 11.25V6.25C2.5 5.55964 3.05964 5 3.75 5H7H9.25H12.5C13.1904 5 13.75 5.55964 13.75 6.25V11.25C13.75 11.9404 13.1904 12.5 12.5 12.5H9.25H7H3.75C3.05964 12.5 2.5 11.9404 2.5 11.25Z" stroke="#686868" stroke-width="1.5" stroke-linecap="round" stroke-linejoin="round"/>
<path d="M11.5625 8.76037L11.5725 8.74927" stroke="#686868" stroke-width="1.5" stroke-linecap="round" stroke-linejoin="round"/>
<path d="M4.6875 8.76037L4.6975 8.74927" stroke="#686868" stroke-width="1.5" stroke-linecap="round" stroke-linejoin="round"/>
<path d="M2.5 10H1.875C1.18464 10 0.625 9.44037 0.625 8.75V3.75C0.625 3.05964 1.18464 2.5 1.875 2.5H10.625C11.3154 2.5 11.875 3.05964 11.875 3.75V5" stroke="#686868" stroke-width="1.5" stroke-linecap="round" stroke-linejoin="round"/>
<path d="M8.125 10C7.43462 10 6.875 9.44037 6.875 8.75C6.875 8.05962 7.43462 7.5 8.125 7.5C8.81537 7.5 9.375 8.05962 9.375 8.75C9.375 9.44037 8.81537 10 8.125 10Z" stroke="#686868" stroke-width="1.5" stroke-linecap="round" stroke-linejoin="round"/>
</g>
<defs>
<clipPath id="clip0_267_52">
<rect width="15" height="15" fill="white"/>
</clipPath>
</defs>
</svg>
