<svg width="20" height="20" viewBox="0 0 20 20" fill="none" xmlns="http://www.w3.org/2000/svg">
<path d="M3.33333 15.0001V8.33341C3.33333 7.41294 4.07952 6.66675 4.99999 6.66675H9.33333H12.3333H16.6667C17.5872 6.66675 18.3333 7.41294 18.3333 8.33341V15.0001C18.3333 15.9206 17.5872 16.6667 16.6667 16.6667H12.3333H9.33333H4.99999C4.07952 16.6667 3.33333 15.9206 3.33333 15.0001Z" stroke="#A66BB5" stroke-width="1.5" stroke-linecap="round" stroke-linejoin="round"/>
<path d="M15.4167 11.6769L15.4267 11.6658" stroke="#A66BB5" stroke-width="1.5" stroke-linecap="round" stroke-linejoin="round"/>
<path d="M6.25 11.6769L6.26 11.6658" stroke="#A66BB5" stroke-width="1.5" stroke-linecap="round" stroke-linejoin="round"/>
<path d="M3.33333 13.3333H2.49999C1.57952 13.3333 0.833328 12.5871 0.833328 11.6666V4.99992C0.833328 4.07944 1.57952 3.33325 2.49999 3.33325H14.1667C15.0872 3.33325 15.8333 4.07944 15.8333 4.99992V6.66659" stroke="#A66BB5" stroke-width="1.5" stroke-linecap="round" stroke-linejoin="round"/>
<path d="M10.8333 13.3333C9.91284 13.3333 9.16667 12.5872 9.16667 11.6667C9.16667 10.7462 9.91284 10 10.8333 10C11.7538 10 12.5 10.7462 12.5 11.6667C12.5 12.5872 11.7538 13.3333 10.8333 13.3333Z" stroke="#A66BB5" stroke-width="1.5" stroke-linecap="round" stroke-linejoin="round"/>
</svg>
