<svg width="19" height="20" viewBox="0 0 19 20" fill="none" xmlns="http://www.w3.org/2000/svg">
<path d="M18.7666 18.605L15.5014 15.245L15.4244 15.124C15.3548 15.0506 15.2711 14.992 15.1783 14.9518C15.0855 14.9116 14.9855 14.8906 14.8844 14.89C14.7832 14.8906 14.6833 14.9116 14.5905 14.9518C14.4977 14.992 14.4139 15.0506 14.3444 15.124C13.0212 16.4163 11.263 17.1676 9.41451 17.2305C7.56605 17.2934 5.76078 16.6633 4.35286 15.464C1.40971 12.979 0.717681 8.63202 2.73178 5.30903C4.74588 1.98603 8.84209 0.716034 12.3053 2.34003C15.7684 3.96403 17.5205 7.98302 16.4015 11.727C16.3612 11.8601 16.3564 12.0015 16.3875 12.137C16.4172 12.2711 16.4813 12.3951 16.5736 12.4968C16.6658 12.5985 16.783 12.6744 16.9135 12.717C17.0424 12.7575 17.1799 12.7625 17.3114 12.7313C17.4429 12.7002 17.5635 12.6341 17.6605 12.54C17.7607 12.4438 17.8341 12.3232 17.8735 12.19C19.2096 7.74802 17.1915 2.96703 13.1233 0.941034C9.0551 -1.08496 4.16185 0.250035 1.60572 4.08403C-0.952403 7.92002 -0.404375 13.101 2.89579 16.278C6.19595 19.455 11.2562 19.674 14.8064 16.796L17.6965 19.771C17.7669 19.843 17.8508 19.9004 17.9436 19.9397C18.0363 19.979 18.1359 19.9995 18.2366 20C18.3894 19.9995 18.5385 19.9529 18.6644 19.8664C18.7904 19.7799 18.8873 19.6574 18.9426 19.515C18.9999 19.3701 19.0147 19.2119 18.9853 19.0589C18.9559 18.9058 18.8835 18.7644 18.7766 18.651L18.7666 18.605Z" fill="#272727"/>
</svg>
