<svg width="18" height="18" viewBox="0 0 18 18" fill="none" xmlns="http://www.w3.org/2000/svg">
<path d="M16.0787 8.74665L9.18623 15.6392C8.34188 16.4836 7.19664 16.958 6.00251 16.958C4.80836 16.958 3.66314 16.4836 2.81876 15.6392C1.97437 14.7948 1.5 13.6496 1.5 12.4554C1.5 11.2613 1.97437 10.1161 2.81876 9.27165L9.71123 2.37917C10.2742 1.81625 11.0377 1.5 11.8337 1.5C12.6299 1.5 13.3934 1.81625 13.9562 2.37917C14.5192 2.94209 14.8355 3.70558 14.8355 4.50167C14.8355 5.29776 14.5192 6.06125 13.9562 6.62417L7.05626 13.5167C6.7748 13.7981 6.39305 13.9562 5.99501 13.9562C5.59696 13.9562 5.21522 13.7981 4.93376 13.5167C4.6523 13.2352 4.49417 12.8535 4.49417 12.4554C4.49417 12.0574 4.6523 11.6756 4.93376 11.3942L11.3012 5.03417" stroke="#686868" stroke-width="1.5" stroke-linecap="round" stroke-linejoin="round"/>
</svg>
