<svg width="20" height="20" viewBox="0 0 20 20" fill="none" xmlns="http://www.w3.org/2000/svg">
<path d="M2.78162 14.1667C4.22249 16.6576 6.91559 18.3334 10.0001 18.3334C13.0846 18.3334 15.7777 16.6576 17.2185 14.1667" stroke="black" stroke-width="1.2" stroke-linecap="round" stroke-linejoin="round"/>
<path d="M2.78162 5.83341C4.22249 3.34257 6.91559 1.66675 10.0001 1.66675C13.0846 1.66675 15.7777 3.34257 17.2185 5.83341" stroke="black" stroke-width="1.2" stroke-linecap="round" stroke-linejoin="round"/>
<path d="M10.8334 18.2921C10.8334 18.2921 12.0066 16.7471 12.7456 14.1665" stroke="black" stroke-width="1.2" stroke-linecap="round" stroke-linejoin="round"/>
<path d="M10.8334 1.70776C10.8334 1.70776 12.0066 3.25273 12.7456 5.83333" stroke="black" stroke-width="1.2" stroke-linecap="round" stroke-linejoin="round"/>
<path d="M9.16663 18.2921C9.16663 18.2921 7.99342 16.7471 7.25439 14.1665" stroke="black" stroke-width="1.2" stroke-linecap="round" stroke-linejoin="round"/>
<path d="M9.16663 1.70776C9.16663 1.70776 7.99342 3.25273 7.25439 5.83333" stroke="black" stroke-width="1.2" stroke-linecap="round" stroke-linejoin="round"/>
<path d="M7.5 8.33325L8.75 12.4999L10 8.33325L11.25 12.4999L12.5 8.33325" stroke="black" stroke-width="1.2" stroke-linecap="round" stroke-linejoin="round"/>
<path d="M0.833374 8.33325L2.08337 12.4999L3.33337 8.33325L4.58337 12.4999L5.83337 8.33325" stroke="black" stroke-width="1.2" stroke-linecap="round" stroke-linejoin="round"/>
<path d="M14.1666 8.33325L15.4166 12.4999L16.6666 8.33325L17.9166 12.4999L19.1666 8.33325" stroke="black" stroke-width="1.2" stroke-linecap="round" stroke-linejoin="round"/>
</svg>
