<svg width="17" height="15" viewBox="0 0 17 15" fill="none" xmlns="http://www.w3.org/2000/svg">
<path d="M15.7498 6.48791H2.56034L6.53009 1.59072C6.60172 1.50537 6.65886 1.40328 6.69817 1.2904C6.73747 1.17752 6.75816 1.05611 6.75903 0.93326C6.75989 0.81041 6.74092 0.688577 6.70321 0.574871C6.66549 0.461165 6.6098 0.357862 6.53939 0.270991C6.46897 0.184119 6.38523 0.115419 6.29305 0.0688978C6.20088 0.0223769 6.10212 -0.0010326 6.00254 3.49336e-05C5.90295 0.00110247 5.80454 0.0266259 5.71304 0.0751157C5.62153 0.123606 5.53877 0.194091 5.46959 0.282459L0.21959 6.759C0.0789866 6.93251 0 7.1678 0 7.41313C0 7.65847 0.0789866 7.89376 0.21959 8.06726L5.46959 14.5438C5.61104 14.7123 5.80049 14.8056 5.99714 14.8035C6.19379 14.8014 6.3819 14.7041 6.52095 14.5325C6.66001 14.361 6.73889 14.1289 6.74059 13.8863C6.7423 13.6438 6.66671 13.41 6.53009 13.2355L2.56034 8.33835H15.7498C15.9488 8.33835 16.1395 8.24087 16.2802 8.06736C16.4208 7.89385 16.4998 7.65852 16.4998 7.41313C16.4998 7.16775 16.4208 6.93242 16.2802 6.7589C16.1395 6.58539 15.9488 6.48791 15.7498 6.48791Z" fill="#272727"/>
</svg>
