<svg width="30" height="30" viewBox="0 0 30 30" fill="none" xmlns="http://www.w3.org/2000/svg">
<circle cx="15" cy="15" r="14.5" fill="white" stroke="#A66BB5"/>
<path d="M8.3335 19.6667V13C8.3335 12.2636 8.93045 11.6667 9.66683 11.6667H10.0002C10.4198 11.6667 10.815 11.4691 11.0668 11.1333L12.5468 9.16C12.6224 9.05928 12.7409 9 12.8668 9H17.1335C17.2594 9 17.378 9.05928 17.4535 9.16L18.9335 11.1333C19.1853 11.4691 19.5805 11.6667 20.0002 11.6667H20.3335C21.0699 11.6667 21.6668 12.2636 21.6668 13V19.6667C21.6668 20.4031 21.0699 21 20.3335 21H9.66683C8.93045 21 8.3335 20.4031 8.3335 19.6667Z" stroke="#A66BB5" stroke-width="1.5" stroke-linecap="round" stroke-linejoin="round"/>
<path d="M15.0002 18.3333C16.4729 18.3333 17.6668 17.1394 17.6668 15.6667C17.6668 14.1939 16.4729 13 15.0002 13C13.5274 13 12.3335 14.1939 12.3335 15.6667C12.3335 17.1394 13.5274 18.3333 15.0002 18.3333Z" stroke="#A66BB5" stroke-width="1.5" stroke-linecap="round" stroke-linejoin="round"/>
</svg>
