<svg width="22" height="21" viewBox="0 0 22 21" fill="none" xmlns="http://www.w3.org/2000/svg">
<path d="M7.66667 20H5.44444C2.98984 20 1 18.0357 1 15.6127V8.71103C1 7.17687 1.81179 5.75416 3.14088 4.959L8.69643 1.63529C10.1123 0.788236 11.8877 0.788236 13.3036 1.63529L18.8591 4.959C20.1882 5.75416 21 7.17687 21 8.71103V15.6127C21 18.0357 19.0101 20 16.5556 20H14.3333M7.66667 20V15.6127C7.66667 13.7954 9.159 12.3222 11 12.3222C12.841 12.3222 14.3333 13.7954 14.3333 15.6127V20M7.66667 20H14.3333H7.66667Z" fill="#A66BB5"/>
<path d="M7.66667 20H5.44444C2.98984 20 1 18.0357 1 15.6127V8.71103C1 7.17687 1.81179 5.75416 3.14088 4.959L8.69643 1.63529C10.1123 0.788236 11.8877 0.788236 13.3036 1.63529L18.8591 4.959C20.1882 5.75416 21 7.17687 21 8.71103V15.6127C21 18.0357 19.0101 20 16.5556 20H14.3333M7.66667 20V15.6127C7.66667 13.7954 9.159 12.3222 11 12.3222C12.841 12.3222 14.3333 13.7954 14.3333 15.6127V20M7.66667 20H14.3333" stroke="white" stroke-linecap="round" stroke-linejoin="round"/>
</svg>
