<svg width="25" height="25" viewBox="0 0 25 25" fill="none" xmlns="http://www.w3.org/2000/svg">
<path d="M18.75 8.74992C18.75 6.9818 18.0916 5.28612 16.9194 4.03588C15.7473 2.78563 14.1576 2.08325 12.5 2.08325C10.8424 2.08325 9.25269 2.78563 8.08058 4.03588C6.90848 5.28612 6.25 6.9818 6.25 8.74992C6.25 16.5277 3.125 18.7499 3.125 18.7499H21.875C21.875 18.7499 18.75 16.5277 18.75 8.74992Z" stroke="#272727" stroke-width="1.5" stroke-linecap="round" stroke-linejoin="round"/>
<path d="M14.3021 21.875C14.119 22.1907 13.8562 22.4528 13.5398 22.6349C13.2236 22.8171 12.865 22.913 12.5 22.913C12.135 22.913 11.7765 22.8171 11.4602 22.6349C11.144 22.4528 10.8811 22.1907 10.6979 21.875" stroke="#272727" stroke-width="1.5" stroke-linecap="round" stroke-linejoin="round"/>
</svg>
