<svg width="20" height="20" viewBox="0 0 20 20" fill="none" xmlns="http://www.w3.org/2000/svg">
<path d="M9.99999 12.6998C11.4912 12.6998 12.7 11.491 12.7 9.9998C12.7 8.50859 11.4912 7.2998 9.99999 7.2998C8.50878 7.2998 7.29999 8.50859 7.29999 9.9998C7.29999 11.491 8.50878 12.6998 9.99999 12.6998Z" stroke="#A66BB5" stroke-width="1.5" stroke-linecap="round" stroke-linejoin="round"/>
<path d="M16.8602 8.55586L15.8722 6.17032L17.2 4.6L15.4 2.8L13.8382 4.13466L11.402 3.13277L10.8418 1H9.0829L8.51419 3.16102L6.13397 4.16436L4.6 2.8L2.8 4.6L4.10803 6.20996L3.13525 8.60167L1 9.1V10.9L3.161 11.49L4.16417 13.8697L2.8 15.4L4.6 17.2L6.21204 15.8863L8.5573 16.8511L9.1 19H10.9L11.444 16.8519L13.8296 15.8639C14.2272 16.1482 15.4 17.2 15.4 17.2L17.2 15.4L15.8643 13.8245L16.8525 11.4382L18.9999 10.8795L19 9.1L16.8602 8.55586Z" stroke="#A66BB5" stroke-width="1.5" stroke-linecap="round" stroke-linejoin="round"/>
</svg>
