<svg width="20" height="20" viewBox="0 0 20 20" fill="none" xmlns="http://www.w3.org/2000/svg">
<path d="M8.7679 2.1863C9.42906 1.46036 10.5712 1.46036 11.2324 2.1863L12.0826 3.11983C12.4166 3.48672 12.8969 3.68564 13.3926 3.66247L14.6539 3.60353C15.6346 3.55769 16.4424 4.36538 16.3966 5.34619L16.3376 6.60744C16.3144 7.10314 16.5133 7.58337 16.8802 7.91749L17.8137 8.76765C18.5397 9.42882 18.5397 10.571 17.8137 11.2322L16.8802 12.0823C16.5133 12.4164 16.3144 12.8967 16.3376 13.3924L16.3966 14.6537C16.4424 15.6344 15.6346 16.4422 14.6539 16.3963L13.3926 16.3373C12.8969 16.3142 12.4166 16.5131 12.0826 16.88L11.2324 17.8135C10.5712 18.5395 9.42906 18.5395 8.7679 17.8135L7.91774 16.88C7.58361 16.5131 7.10338 16.3142 6.60769 16.3373L5.34642 16.3963C4.36562 16.4422 3.55793 15.6344 3.60377 14.6537L3.66271 13.3924C3.68588 12.8967 3.48696 12.4164 3.12007 12.0823L2.18655 11.2322C1.4606 10.571 1.4606 9.42882 2.18655 8.76765L3.12007 7.91749C3.48696 7.58337 3.68588 7.10314 3.66271 6.60744L3.60377 5.34618C3.55793 4.36538 4.36562 3.55769 5.34643 3.60353L6.60769 3.66247C7.10338 3.68564 7.58361 3.48672 7.91774 3.11983L8.7679 2.1863Z" fill="#59C58B"/>
<path d="M7.5 9.99992L9.16667 11.6666L12.5 8.33325" stroke="white" stroke-width="1.5" stroke-linecap="round" stroke-linejoin="round"/>
</svg>
